<?xml version="1.0" encoding="utf-8"?>
<!DOCTYPE svg
  PUBLIC '-//W3C//DTD SVG 1.0//EN'
  'http://www.w3.org/TR/2001/REC-SVG-20010904/DTD/svg10.dtd'>
<svg width="491.27559055118115" height="190" preserveAspectRatio="xMinYMin meet" viewBox="0 0 491 190" xmlns="http://www.w3.org/2000/svg" version="1.0" fill-rule="evenodd" xmlns:xlink="http://www.w3.org/1999/xlink">
	<title>...</title>
	<desc>...</desc>
	<clipPath id="clip">
		<rect x="0" y="0" width="491.27559055118115" height="190"/>
	</clipPath>
	<g id="group" transform="scale(1,-1) translate(0,-190)" style="clip-path: url(#clip)">
		<g transform="">
			<rect x="0" y="142" width="491.27559055118115" height="40" rx="5" ry="5" style="stroke: rgb(70%,77%,81%); stroke-linecap: butt; stroke-width: 0.6; fill: rgb(92%,95%,96%); fill-rule: evenodd;"/>
			<text x="139.55478746309058" y="162.0" style="font-family: Sans-Bold; font-size: 9.2px;fill: rgb(9%,14%,21%); stroke:none;" transform="translate(0,324) scale(1,-1)">Persistent mission context and artifact identities</text>
			<rect x="0.0" y="64" width="150.42519685039372" height="58" rx="5" ry="5" style="stroke: rgb(70%,77%,81%); stroke-linecap: butt; stroke-width: 0.6; fill: rgb(92%,95%,96%); fill-rule: evenodd;"/>
			<text x="40.55224686269686" y="99.0" style="font-family: Sans; font-size: 8.6px;fill: rgb(9%,14%,21%); stroke:none;" transform="translate(0,198) scale(1,-1)">Initial organization</text>
			<text x="37.57500076894686" y="87.0" style="font-family: Sans; font-size: 8.6px;fill: rgb(9%,14%,21%); stroke:none;" transform="translate(0,174) scale(1,-1)">Researcher + writer</text>
			<path d="M 150.425197,93 L 170.425197,93 Z" style="stroke: rgb(13%,36%,49%); stroke-linecap: butt; stroke-width: 1;"/>
			<polygon points="170.4252 93, 165.4252 90, 165.4252 96" style="stroke: rgb(13%,36%,49%); stroke-linecap: butt; stroke-width: 1; fill: rgb(13%,36%,49%); fill-rule: evenodd;"/>
			<path d="M 75.212598,142 L 75.212598,122 Z" style="stroke: rgb(13%,36%,49%); stroke-linecap: butt; stroke-width: 1;"/>
			<polygon points="75.2126 122, 72.2126 127, 78.2126 127" style="stroke: rgb(13%,36%,49%); stroke-linecap: butt; stroke-width: 1; fill: rgb(13%,36%,49%); fill-rule: evenodd;"/>
			<rect x="170.42519685039372" y="64" width="150.42519685039372" height="58" rx="5" ry="5" style="stroke: rgb(70%,77%,81%); stroke-linecap: butt; stroke-width: 0.6; fill: rgb(92%,95%,96%); fill-rule: evenodd;"/>
			<text x="197.84018785371558" y="99.0" style="font-family: Sans; font-size: 8.6px;fill: rgb(9%,14%,21%); stroke:none;" transform="translate(0,198) scale(1,-1)">Temporary specialization</text>
			<text x="185.41469957246557" y="87.0" style="font-family: Sans; font-size: 8.6px;fill: rgb(9%,14%,21%); stroke:none;" transform="translate(0,174) scale(1,-1)">Researcher + writer + specialist</text>
			<path d="M 320.850394,93 L 340.850394,93 Z" style="stroke: rgb(13%,36%,49%); stroke-linecap: butt; stroke-width: 1;"/>
			<polygon points="340.8504 93, 335.8504 90, 335.8504 96" style="stroke: rgb(13%,36%,49%); stroke-linecap: butt; stroke-width: 1; fill: rgb(13%,36%,49%); fill-rule: evenodd;"/>
			<path d="M 245.637795,142 L 245.637795,122 Z" style="stroke: rgb(13%,36%,49%); stroke-linecap: butt; stroke-width: 1;"/>
			<polygon points="245.6378 122, 242.6378 127, 248.6378 127" style="stroke: rgb(13%,36%,49%); stroke-linecap: butt; stroke-width: 1; fill: rgb(13%,36%,49%); fill-rule: evenodd;"/>
			<rect x="340.85039370078744" y="64" width="150.42519685039372" height="58" rx="5" ry="5" style="stroke: rgb(70%,77%,81%); stroke-linecap: butt; stroke-width: 0.6; fill: rgb(92%,95%,96%); fill-rule: evenodd;"/>
			<text x="371.3665077509843" y="99.0" style="font-family: Sans; font-size: 8.6px;fill: rgb(9%,14%,21%); stroke:none;" transform="translate(0,198) scale(1,-1)">Successor organization</text>
			<text x="378.7718300166093" y="87.0" style="font-family: Sans; font-size: 8.6px;fill: rgb(9%,14%,21%); stroke:none;" transform="translate(0,174) scale(1,-1)">Specialist detached</text>
			<path d="M 416.062992,142 L 416.062992,122 Z" style="stroke: rgb(13%,36%,49%); stroke-linecap: butt; stroke-width: 1;"/>
			<polygon points="416.063 122, 413.063 127, 419.063 127" style="stroke: rgb(13%,36%,49%); stroke-linecap: butt; stroke-width: 1; fill: rgb(13%,36%,49%); fill-rule: evenodd;"/>
			<rect x="0" y="7" width="491.27559055118115" height="39" rx="5" ry="5" style="stroke: rgb(70%,77%,81%); stroke-linecap: butt; stroke-width: 0.6; fill: rgb(100%,100%,100%); fill-rule: evenodd;"/>
			<text x="87.29843980684055" y="32.5" style="font-family: Sans; font-size: 9px;fill: rgb(9%,14%,21%); stroke:none;" transform="translate(0,65) scale(1,-1)">Artifacts retain versions and provenance; transition receipts explain the change.</text>
			<text x="133.58384019746558" y="20.5" style="font-family: Sans; font-size: 9px;fill: rgb(9%,14%,21%); stroke:none;" transform="translate(0,41) scale(1,-1)">Task-level dependency validity still needs its own check.</text>
		</g>
	</g>
</svg>
